# xmcd CD database file
#
# Track frame offsets:
#	183
#	11870
#	36945
#	62545
#	77020
#	109570
#	137188
#	183483
#	209490
#	231408
#	263883
#	281995
#
# Disc length: 4451 seconds
#
# Revision: 0
# Processed by: cddbd v1.5.1PL2 Copyright (c) Steve Scherf et al.
# Submitted via: CDex 1.40Release
#
DISCID=b311610c
DTITLE=Stevie Ray Vaughan - Let Me Love You Baby
DYEAR=1989
DGENRE=Blues
TTITLE0=The House is Rockin'
TTITLE1=Tightrope
TTITLE2=Look At Little Sister
TTITLE3=Let Me Love You Baby
TTITLE4=Texas Flood
TTITLE5=Leave My Girl Alone
TTITLE6=Riviera Paradise
TTITLE7=Wall of Denial
TTITLE8=Superstition
TTITLE9=Cold Shot
TTITLE10=Crossfire
TTITLE11=Voodoo Chile
EXTD=YEAR: 1989 ID3G: 0
EXTT0=
EXTT1=
EXTT2=
EXTT3=
EXTT4=
EXTT5=
EXTT6=
EXTT7=
EXTT8=
EXTT9=
EXTT10=
EXTT11=
PLAYORDER=
